<svg width="148" height="148" viewBox="0 0 148 148" fill="none" xmlns="http://www.w3.org/2000/svg">
<path d="M0 40.1352C0 17.9691 17.9691 0 40.1352 0H107.027C129.193 0 147.162 17.9691 147.162 40.1352V107.027C147.162 129.193 129.193 147.162 107.027 147.162H40.1352C17.9691 147.162 0 129.193 0 107.027V40.1352Z" fill="#191919"/>
<path d="M114.319 62.3017C116.981 61.5295 119.793 63.0594 120.277 65.788C121.823 74.5003 120.884 83.5096 117.514 91.7644C113.509 101.574 106.307 109.743 97.076 114.945C87.8453 120.147 77.1276 122.078 66.6618 120.424C56.196 118.769 46.5963 113.627 39.4202 105.831C32.2441 98.0357 27.9127 88.0439 27.1288 77.4772C26.3449 66.9105 29.1545 56.389 35.1017 47.6197C41.0489 38.8504 49.7847 32.348 59.8918 29.1674C68.3969 26.491 77.453 26.299 86.0077 28.5597C88.687 29.2677 89.9794 32.1965 88.9899 34.7851V34.7851C88.0004 37.3736 85.1027 38.6336 82.404 38.0035C75.9852 36.5049 69.2497 36.7434 62.9042 38.7402C54.9552 41.2416 48.0847 46.3556 43.4073 53.2525C38.73 60.1493 36.5203 68.4243 37.1368 76.7347C37.7534 85.0452 41.1599 92.9035 46.8037 99.0347C52.4476 105.166 59.9976 109.21 68.2287 110.511C76.4598 111.812 84.889 110.294 92.1487 106.202C99.4085 102.111 105.073 95.6864 108.222 87.9713C110.737 81.8125 111.531 75.1198 110.568 68.599C110.163 65.8575 111.658 63.0739 114.319 62.3017V62.3017Z" fill="white"/>
<rect x="97" y="32" width="21" height="21" rx="10.5" fill="#17B24A"/>
<rect x="45" y="45" width="57" height="57" rx="28.5" fill="url(#paint0_radial_4424_137980)" fill-opacity="0.12"/>
<circle cx="61" cy="61" r="6" fill="white" fill-opacity="0.3"/>
<defs>
<radialGradient id="paint0_radial_4424_137980" cx="0" cy="0" r="1" gradientUnits="userSpaceOnUse" gradientTransform="translate(73.5 73.5) rotate(51.6667) scale(27.4089)">
<stop stop-color="white" stop-opacity="0"/>
<stop offset="1" stop-color="white"/>
</radialGradient>
</defs>
</svg>
