<svg width="148" height="148" viewBox="0 0 148 148" fill="none" xmlns="http://www.w3.org/2000/svg">
<rect width="147.162" height="147.162" rx="40.1352" fill="#DB0000"/>
<path d="M44.5781 39.6016C49.1778 39.6016 53.0781 42.9554 53.0781 47.1543V96.0488C53.0781 100.248 49.1778 103.602 44.5781 103.602C39.8982 103.602 36.0781 100.245 36.0781 96.0488V47.1543L36.0898 46.7637C36.3227 42.7493 40.122 39.6016 44.5781 39.6016Z" fill="white" stroke="white"/>
<path d="M75.3516 24.5C79.8882 24.5 83.6249 28.2368 83.625 32.7734V110.435C83.625 114.971 79.8882 118.708 75.3516 118.708C70.7371 118.708 67.0781 114.968 67.0781 110.435V32.7734C67.0782 28.2369 70.815 24.5001 75.3516 24.5Z" fill="white" stroke="white"/>
<path d="M105.901 53.6016C108.118 53.6016 110.161 54.2072 111.664 55.2051C113.162 56.1995 114.177 57.6272 114.177 59.2646V83.9385C114.177 85.5759 113.162 87.0036 111.664 87.998C110.161 88.9959 108.118 89.6015 105.901 89.6016C103.648 89.6016 101.605 88.9963 100.109 87.9971C98.6179 87.0001 97.625 85.5719 97.625 83.9385V59.2646C97.625 57.6272 98.6409 56.1995 100.139 55.2051C101.642 54.2073 103.685 53.6016 105.901 53.6016Z" fill="white" stroke="white"/>
</svg>
