<svg width="148" height="148" viewBox="0 0 148 148" fill="none" xmlns="http://www.w3.org/2000/svg">
<rect width="147.162" height="147.162" rx="40.1352" fill="#002540"/>
<path d="M120.574 72.833L113.761 104.977C112.802 109.487 108.772 112.749 104.166 112.749C97.9293 112.749 93.3237 106.992 94.571 100.947L100.328 73.8885C102.247 64.5812 97.2577 58.1524 89.0059 58.1524C79.0269 58.1524 69.7196 68.4193 64.7301 75.0399C64.0585 75.9035 62.7152 75.1359 63.099 74.0804C67.5127 62.3743 78.7391 39.25 98.1213 39.25C114.241 39.346 124.988 52.1075 120.574 72.833Z" fill="white"/>
<path d="M28.2797 79.244L35.0922 47.1002C36.0518 42.5905 40.0817 39.3281 44.6874 39.3281C50.9242 39.3281 55.5299 45.0852 54.2825 51.1302L48.5255 78.1885C46.6064 87.4958 51.5959 93.9245 59.8477 93.9245C69.8267 93.9245 79.134 83.6577 84.1235 77.0371C84.7951 76.1735 86.1384 76.9411 85.7546 77.9966C81.3409 89.7027 70.1145 112.827 50.7323 112.827C34.7084 112.731 23.8659 99.9695 28.2797 79.244Z" fill="white"/>
</svg>
